<svg width="24" height="24" viewBox="0 0 24 24" fill="none" xmlns="http://www.w3.org/2000/svg">
<g clip-path="url(#clip0_33_1321)">
<path d="M23.34 12.35L12.67 24H3C1.35 24 0 22.65 0 21V14C0 12.35 1.35 11 3 11H7V10C5.35 10 4 8.65 4 7H6C6 7.55 6.45 8 7 8H9.38C9.72 8 10 7.72 10 7.38C10 7.07 9.78 6.81 9.48 6.76L6.19 6.21C4.92 6 4 4.91 4 3.62C4 2.17 5.18 1 6.62 1H7V0H9V1C10.65 1 12 2.35 12 4H10C10 3.45 9.55 3 9 3H6.62C6.28 3 6 3.28 6 3.62C6 3.93 6.22 4.19 6.52 4.24L9.81 4.79C11.08 5 12 6.09 12 7.38C12 8.83 10.82 10 9.38 10H9V11H11.79C13.01 11 14 11.99 14 13.21C14 14.3 13.18 15.25 12.1 15.4L7.86 16.01L8.14 17.99L12.38 17.38C14.44 17.09 16 15.29 16 13.21C16 12.99 15.97 12.78 15.94 12.57L19.48 8.83C19.94 8.33 20.58 8.03 21.27 8C21.96 7.97 22.63 8.21 23.15 8.68C24.2 9.64 24.29 11.28 23.34 12.34V12.35Z" fill="#00BF63"/>
</g>
<defs>
<clipPath id="clip0_33_1321">
<rect width="24" height="24" fill="white"/>
</clipPath>
</defs>
</svg>
