<svg width="15" height="15" viewBox="0 0 15 15" fill="none" xmlns="http://www.w3.org/2000/svg">
<g clip-path="url(#clip0_94_2704)">
<path d="M7.55082 4.51586L5.18426 0.770933L3.28878 1.96876C2.95954 2.17777 2.6751 2.45011 2.45197 2.76996C2.22885 3.0898 2.07148 3.45079 1.98901 3.83195C1.1917 7.36715 4.68658 12.8976 8.22179 13.6949C8.60154 13.7838 8.99516 13.7965 9.37986 13.7323C9.76456 13.6681 10.1327 13.5282 10.463 13.3208L12.358 12.1229L9.99143 8.37795L7.52569 9.93614C6.23916 9.01742 5.36196 7.63288 5.08079 6.07719L7.55082 4.51586ZM9.42252 2.6894L9.64253 1.7139C10.9354 2.00698 12.0592 2.80092 12.7673 3.92155C13.4755 5.04218 13.7102 6.39797 13.42 7.69144L12.4445 7.47143C12.6766 6.43665 12.4888 5.35204 11.9223 4.45554C11.3558 3.55905 10.4568 2.92388 9.42252 2.6894ZM8.9825 4.6404L9.20251 3.6649C9.97826 3.84067 10.6526 4.31702 11.0775 4.98942C11.5024 5.66182 11.6432 6.47533 11.469 7.25142L10.4935 7.03141C10.6102 6.51397 10.5166 5.97137 10.2332 5.52297C9.94982 5.07457 9.49994 4.7571 8.9825 4.6404Z" fill="white"/>
</g>
<defs>
<clipPath id="clip0_94_2704">
<rect width="12" height="12" fill="white" transform="matrix(0.22001 -0.975498 -0.975498 -0.22001 11.8799 14.52)"/>
</clipPath>
</defs>
</svg>
