<svg width="18" height="18" viewBox="0 0 18 18" fill="none" xmlns="http://www.w3.org/2000/svg">
<g clip-path="url(#clip0_94_2706)">
<path d="M14.7563 2.06852C13.8061 1.27776 12.7023 0.692387 11.5146 0.34929C10.327 0.00619327 9.08111 -0.087193 7.85556 0.0750159C5.58835 0.369554 3.51822 1.51589 2.0655 3.28127C0.612775 5.04665 -0.113641 7.29873 0.0337501 9.58023C0.181141 11.8617 1.19129 14.0016 2.85908 15.5654C4.52688 17.1292 6.7273 17.9996 9.01356 18H14.2501C15.2443 17.9988 16.1974 17.6034 16.9004 16.9004C17.6034 16.1973 17.9989 15.2442 18.0001 14.25V8.48177V8.43452C17.9207 7.2086 17.5921 6.01176 17.0343 4.91718C16.4766 3.8226 15.7015 2.85328 14.7563 2.06852ZM6.00006 5.25002H9.00006C9.19897 5.25002 9.38974 5.32903 9.53039 5.46969C9.67104 5.61034 9.75006 5.8011 9.75006 6.00002C9.75006 6.19893 9.67104 6.38969 9.53039 6.53035C9.38974 6.671 9.19897 6.75002 9.00006 6.75002H6.00006C5.80115 6.75002 5.61038 6.671 5.46973 6.53035C5.32908 6.38969 5.25006 6.19893 5.25006 6.00002C5.25006 5.8011 5.32908 5.61034 5.46973 5.46969C5.61038 5.32903 5.80115 5.25002 6.00006 5.25002ZM12.0001 12.75H6.00006C5.80115 12.75 5.61038 12.671 5.46973 12.5303C5.32908 12.3897 5.25006 12.1989 5.25006 12C5.25006 11.8011 5.32908 11.6103 5.46973 11.4697C5.61038 11.329 5.80115 11.25 6.00006 11.25H12.0001C12.199 11.25 12.3897 11.329 12.5304 11.4697C12.671 11.6103 12.7501 11.8011 12.7501 12C12.7501 12.1989 12.671 12.3897 12.5304 12.5303C12.3897 12.671 12.199 12.75 12.0001 12.75ZM12.0001 9.75002H6.00006C5.80115 9.75002 5.61038 9.671 5.46973 9.53035C5.32908 9.38969 5.25006 9.19893 5.25006 9.00002C5.25006 8.8011 5.32908 8.61034 5.46973 8.46969C5.61038 8.32903 5.80115 8.25002 6.00006 8.25002H12.0001C12.199 8.25002 12.3897 8.32903 12.5304 8.46969C12.671 8.61034 12.7501 8.8011 12.7501 9.00002C12.7501 9.19893 12.671 9.38969 12.5304 9.53035C12.3897 9.671 12.199 9.75002 12.0001 9.75002Z" fill="white"/>
</g>
<defs>
<clipPath id="clip0_94_2706">
<rect width="18" height="18" fill="white"/>
</clipPath>
</defs>
</svg>
