<svg width="21" height="21" viewBox="0 0 21 21" fill="none" xmlns="http://www.w3.org/2000/svg">
<g clip-path="url(#clip0_41_3311)">
<path d="M19.9525 18.1254H5.90991C5.77231 18.1254 5.63605 18.0983 5.50892 18.0457C5.38179 17.993 5.26627 17.9158 5.16897 17.8185C5.07167 17.7212 4.99448 17.6057 4.94182 17.4786C4.88916 17.3514 4.86206 17.2152 4.86206 17.0776C4.86206 16.94 4.88916 16.8037 4.94182 16.6766C4.99448 16.5495 5.07167 16.4339 5.16897 16.3366C5.26627 16.2393 5.38179 16.1622 5.50892 16.1095C5.63605 16.0568 5.77231 16.0297 5.90991 16.0297H19.9522C20.2301 16.0297 20.4966 16.14 20.6932 16.3365C20.8897 16.533 21.0002 16.7995 21.0002 17.0774C21.0002 17.3553 20.8899 17.6219 20.6934 17.8184C20.4969 18.0149 20.2304 18.1254 19.9525 18.1254ZM19.9525 11.5481H5.90991C5.632 11.5481 5.36548 11.4377 5.16897 11.2412C4.97246 11.0447 4.86206 10.7781 4.86206 10.5002C4.86206 10.2223 4.97246 9.95579 5.16897 9.75928C5.36548 9.56277 5.632 9.45237 5.90991 9.45237H19.9522C20.2301 9.45232 20.4966 9.56267 20.6932 9.75915C20.8897 9.95563 21.0002 10.2221 21.0002 10.5C21.0002 10.778 20.8899 11.0445 20.6934 11.241C20.4969 11.4376 20.2304 11.548 19.9525 11.5481ZM19.9525 4.9707H5.90991C5.77231 4.9707 5.63605 4.9436 5.50892 4.89094C5.38179 4.83828 5.26627 4.7611 5.16897 4.6638C5.07167 4.56649 4.99448 4.45098 4.94182 4.32385C4.88916 4.19672 4.86206 4.06046 4.86206 3.92285C4.86206 3.78525 4.88916 3.64899 4.94182 3.52186C4.99448 3.39473 5.07167 3.27921 5.16897 3.18191C5.26627 3.08461 5.38179 3.00742 5.50892 2.95476C5.63605 2.9021 5.77231 2.875 5.90991 2.875H19.9522C20.2301 2.87495 20.4966 2.98531 20.6932 3.18179C20.8897 3.37826 21.0002 3.64477 21.0002 3.92268C21.0002 4.20058 20.8899 4.46713 20.6934 4.66367C20.4969 4.86021 20.2304 4.97066 19.9525 4.9707Z" fill="black"/>
<path d="M1.40727 5.41121C2.18448 5.41121 2.81453 4.78116 2.81453 4.00394C2.81453 3.22673 2.18448 2.59668 1.40727 2.59668C0.630054 2.59668 0 3.22673 0 4.00394C0 4.78116 0.630054 5.41121 1.40727 5.41121Z" fill="black"/>
<path d="M1.40727 11.9073C2.18448 11.9073 2.81453 11.2772 2.81453 10.5C2.81453 9.72283 2.18448 9.09277 1.40727 9.09277C0.630054 9.09277 0 9.72283 0 10.5C0 11.2772 0.630054 11.9073 1.40727 11.9073Z" fill="black"/>
<path d="M1.40727 18.4039C2.18448 18.4039 2.81453 17.7738 2.81453 16.9966C2.81453 16.2194 2.18448 15.5894 1.40727 15.5894C0.630054 15.5894 0 16.2194 0 16.9966C0 17.7738 0.630054 18.4039 1.40727 18.4039Z" fill="black"/>
</g>
<defs>
<clipPath id="clip0_41_3311">
<rect width="21" height="21" fill="white"/>
</clipPath>
</defs>
</svg>
