<svg width="18" height="18" viewBox="0 0 18 18" fill="none" xmlns="http://www.w3.org/2000/svg">
<path d="M10.6882 9.20636L10.1482 9.49751C10.6319 10.385 10.3078 11.498 9.42032 11.9817C8.95072 12.2399 8.38721 12.2775 7.88475 12.0803C7.77205 12.038 7.64526 12.0944 7.60299 12.2071C7.56543 12.2963 7.5936 12.3949 7.66874 12.4559L9.51424 13.9539L9.15734 12.7377C10.4628 12.3996 11.2423 11.0659 10.9042 9.76048C10.8573 9.56795 10.7821 9.38011 10.6882 9.20636Z" fill="#040606"/>
<path d="M9.41986 8.29535L7.57436 6.79735L7.92656 8.01359C6.62579 8.3517 5.84157 9.68534 6.17967 10.9908C6.23133 11.1833 6.30647 11.3712 6.40038 11.5449L6.93572 11.2538C6.45204 10.3663 6.77606 9.25332 7.66828 8.76964C8.13788 8.51136 8.70139 8.47379 9.20385 8.67102C9.31655 8.71329 9.44334 8.65693 9.48561 8.54423C9.51848 8.45501 9.4903 8.3564 9.41986 8.29535Z" fill="#040606"/>
<mask id="mask0_33_595" style="mask-type:luminance" maskUnits="userSpaceOnUse" x="0" y="0" width="18" height="18">
<path d="M0 0H17.0838V17.0838H0V0Z" fill="white"/>
</mask>
<g mask="url(#mask0_33_595)">
<path d="M15.2571 14.0361H16.0272C15.8112 14.4118 15.8112 14.8767 16.0272 15.2524H15.2571V14.0361ZM1.05658 14.0361H1.83141V15.2524H1.05658C1.27729 14.8767 1.27729 14.4118 1.05658 14.0361ZM15.2571 1.83141H16.0272C15.8112 2.20708 15.8112 2.67668 16.0272 3.05235H15.2571V1.83141ZM1.05658 1.83141H1.83141V3.05235H1.05658C1.27729 2.67668 1.27729 2.20708 1.05658 1.83141ZM3.05235 0.61047H14.0361C14.3695 0.61047 14.6466 0.887531 14.6466 1.22094V15.8628C14.6466 16.2009 14.3695 16.4733 14.0361 16.4733H3.05235C2.71424 16.4733 2.44188 16.2009 2.44188 15.8628V1.22094C2.44188 0.887531 2.71424 0.61047 3.05235 0.61047ZM3.05235 0C2.37614 0 1.83141 0.544727 1.83141 1.22094H0V1.83141C0.338107 1.83141 0.61047 2.10377 0.61047 2.44188C0.61047 2.77999 0.338107 3.05235 0 3.05235V3.66282H1.83141V13.4257H0V14.0361C0.338107 14.0361 0.61047 14.3085 0.61047 14.6419C0.61047 14.98 0.338107 15.2524 0 15.2524V15.8628H1.83141C1.83141 16.539 2.37614 17.0838 3.05235 17.0838H14.0361C14.7076 17.0838 15.2571 16.539 15.2571 15.8628H17.0838V15.2524C16.7504 15.2524 16.4733 14.98 16.4733 14.6419C16.4733 14.3085 16.7504 14.0361 17.0838 14.0361V13.4257H15.2571V3.66282H17.0838V3.05235C16.7504 3.05235 16.4733 2.77999 16.4733 2.44188C16.4733 2.10377 16.7504 1.83141 17.0838 1.83141V1.22094H15.2571C15.2571 0.544727 14.7076 0 14.0361 0H3.05235Z" fill="#040606"/>
</g>
<path d="M4.27307 2.44188H12.815V4.27329H4.27307V2.44188ZM3.6626 1.83141V4.88376H13.4254V1.83141H3.6626Z" fill="#040606"/>
</svg>
