<svg width="20" height="16" viewBox="0 0 20 16" fill="none" xmlns="http://www.w3.org/2000/svg">
<mask id="mask0_223_1527" style="mask-type:luminance" maskUnits="userSpaceOnUse" x="0" y="0" width="20" height="16">
<path d="M0 0H19.7839V15.2852H0V0Z" fill="white"/>
</mask>
<g mask="url(#mask0_223_1527)">
<path d="M19.4462 15.0505C19.2631 15.1961 19.0659 15.2524 18.8311 15.2618L1.84121 15.2665C1.59233 15.2665 1.32936 15.2853 1.08047 15.2618C0.169463 15.182 0.00510451 13.6887 1.35284 13.684L1.35753 5.17025C1.01003 5.02937 0.808109 4.80866 0.723581 4.44238V4.4283C0.709493 4.37194 0.704798 4.31559 0.704798 4.25455L0.700102 3.57833C0.700102 2.72837 0.8175 2.348 1.78956 2.3433H2.28732L2.29202 1.46986C2.29202 1.32429 2.24506 1.12706 2.35307 1.00497C2.52682 0.812433 2.771 0.831215 3.0058 0.798345C3.04806 0.793648 3.04337 0.479021 3.13259 0.375711C3.32043 0.145611 3.70549 0.0751719 3.98725 0.0516925C4.35353 0.00473269 4.9687 0.131523 5.11427 0.483718C5.15184 0.568244 5.15653 0.690338 5.16593 0.784257C5.29741 0.798345 5.50403 0.765473 5.61674 0.835912C5.91258 1.02375 5.86092 1.23976 5.86092 1.54969V2.3433C5.95954 2.3433 6.67801 2.3527 6.68741 2.3433C6.73437 2.30104 6.77663 2.20243 6.8095 2.14608L7.13352 1.58256C7.31197 1.29142 7.49511 1.13175 7.86139 1.12236L11.5665 1.11767C12.285 1.11767 12.5949 0.995574 13.0081 1.70935L13.2476 2.14608C13.3791 2.39026 13.2946 2.3433 13.5951 2.3433H14.2103V1.26794C14.2103 0.643379 14.9241 0.87348 14.9288 0.732602C14.9428 0.0563884 15.821 3.73609e-05 16.3422 0.0751722C17.1922 0.201962 16.9997 0.756081 17.0607 0.798345C17.1218 0.845303 17.7651 0.741994 17.7651 1.1928V2.33861C18.1361 2.37148 18.5775 2.26817 18.9109 2.44661C19.4603 2.74246 19.3617 3.34354 19.3617 3.8507C19.3617 4.15593 19.4087 4.45647 19.2396 4.73353C19.141 4.89319 18.9626 5.07164 18.7747 5.1186C18.7512 5.12799 18.7372 5.12799 18.7137 5.14677L18.7184 13.6746C18.9954 13.684 19.2255 13.7215 19.4321 13.9188C19.7703 14.2428 19.7796 14.7218 19.4462 15.0505ZM3.85576 0.671555C3.8135 0.67625 3.71958 0.671555 3.68671 0.695034C3.55053 0.793648 4.2737 0.74669 4.34414 0.751385C4.41458 0.732602 4.49441 0.732602 4.56485 0.704426C4.45684 0.666859 4.34884 0.671555 4.23613 0.671555H3.85576ZM15.774 0.676251H15.7599C15.6989 0.685643 15.6378 0.676251 15.5768 0.695034L15.5721 0.704426C15.6613 0.77017 15.7505 0.751385 15.8585 0.751385H16.2389C16.3 0.74669 16.3704 0.751385 16.4315 0.72321L16.4361 0.704426C16.3469 0.666859 16.2436 0.671555 16.1497 0.671555L15.774 0.676251ZM15.1589 1.36186H14.8301L14.8348 2.33861L16.8071 2.3433H17.1358C17.1358 2.2306 17.1499 1.43699 17.1311 1.39473C16.8165 1.36186 16.5066 1.36186 16.192 1.36186H15.1589ZM3.2406 1.36655C3.14668 1.36655 3.0058 1.35246 2.91658 1.37594V2.01929C2.91658 2.1226 2.90719 2.23999 2.92127 2.3433H4.92174L5.23637 2.348L5.23167 1.6624C5.23167 1.32429 5.29741 1.37125 4.88417 1.36655H3.2406ZM9.72097 1.71875L7.75808 1.72344C7.65946 1.93476 7.5045 2.1226 7.41058 2.3433H10.3784L12.6512 2.32922C12.6137 2.30104 12.6043 2.24939 12.5808 2.20712L12.3507 1.81736C12.3413 1.80327 12.3037 1.72814 12.2943 1.72344C12.2568 1.70466 9.90412 1.71875 9.72097 1.71875ZM1.70033 2.93969C1.58763 2.94908 1.45145 2.93499 1.36692 3.02421C1.29179 3.10404 1.31996 3.65816 1.31996 3.79435C1.31996 4.03384 1.23544 4.56448 1.59702 4.57387H18.3756C18.6902 4.55978 18.7418 4.44238 18.7418 4.14654V3.83191C18.7418 3.62999 18.8358 3.01482 18.6104 2.95847L18.5963 2.95377C18.4883 2.9303 18.3662 2.93969 18.2535 2.93969H1.81304C1.78486 2.93969 1.72381 2.94908 1.70033 2.93969ZM9.23729 5.17495H1.968L1.9727 13.684H18.0938V5.17025L9.23729 5.17495ZM3.13729 14.2897H1.39979C1.32466 14.2897 1.24483 14.285 1.16969 14.2897C0.986553 14.3132 0.887938 14.656 1.18378 14.6654H16.9198L18.6902 14.6701C18.7606 14.6701 18.8358 14.6748 18.9062 14.6654C19.0847 14.6419 19.0706 14.4118 18.9673 14.3132C18.9344 14.285 18.8217 14.2897 18.7747 14.2897H3.13729Z" fill="black"/>
</g>
<path d="M8.88934 13.9067L8.32113 14.4843C8.18964 14.6111 8.06285 14.7848 7.90319 14.874C7.70127 14.9914 7.39134 14.8553 7.4289 14.6064C7.45708 14.4326 7.55569 14.2542 7.61674 14.0898L8.40566 12.2349C8.48079 12.0847 8.52775 11.9532 8.59349 11.8076C8.33052 11.7841 8.0065 11.8499 7.76231 11.7278C7.46647 11.5775 7.46177 11.2018 7.60735 10.9482C7.69657 10.7839 7.82336 10.6336 7.93606 10.4927L9.43876 8.64724C9.66416 8.37488 10.0445 7.83015 10.4014 7.72215C10.6362 7.69867 10.8053 7.84424 10.8804 8.06025C11.0072 8.45001 10.4906 9.76018 10.3028 10.1218L12.1718 9.46433C12.3643 9.41268 12.5897 9.44085 12.6367 9.66626L12.6461 9.72731C12.6555 9.92454 12.3784 10.1265 12.2563 10.2579L8.88934 13.9067ZM10.0727 8.84447L8.4667 10.798C8.36339 10.9248 8.24599 11.0516 8.17086 11.1971C8.4667 11.1877 8.8189 11.122 9.05369 11.3427C9.36832 11.6292 9.20396 12.0001 9.05369 12.3242L8.4714 13.4653L8.94099 12.9487L11.2561 10.4505L10.4719 10.7135C10.1619 10.8074 9.7346 10.9201 9.61251 10.488C9.51389 10.1359 10.2183 8.96187 10.0821 8.84447H10.0727Z" fill="black"/>
</svg>
