<svg width="20" height="18" viewBox="0 0 20 18" fill="none" xmlns="http://www.w3.org/2000/svg">
<mask id="mask0_33_617" style="mask-type:luminance" maskUnits="userSpaceOnUse" x="0" y="6" width="20" height="12">
<path d="M0.291016 6.29019H19.1733V17.0814H0.291016V6.29019Z" fill="white"/>
</mask>
<g mask="url(#mask0_33_617)">
<path fill-rule="evenodd" clip-rule="evenodd" d="M1.60578 16.8935C1.35689 17.1424 0.948347 17.1424 0.699463 16.8935C0.445882 16.6399 0.445882 16.2361 0.699463 15.9872L7.13288 9.58193C7.36298 9.34713 7.73396 9.32835 7.98754 9.53027L11.8288 12.592L17.8584 6.59062C18.1073 6.34174 18.5158 6.34174 18.7647 6.59062C19.0183 6.83951 19.0183 7.24805 18.7647 7.49694L12.3313 13.9022C12.1012 14.1323 11.7302 14.1558 11.4766 13.9491L7.63534 10.8921L1.60578 16.8935Z" fill="black"/>
</g>
<mask id="mask1_33_617" style="mask-type:luminance" maskUnits="userSpaceOnUse" x="15" y="6" width="5" height="6">
<path d="M15.0742 6.29019H19.1738V11.0988H15.0742V6.29019Z" fill="white"/>
</mask>
<g mask="url(#mask1_33_617)">
<path fill-rule="evenodd" clip-rule="evenodd" d="M15.7366 7.68485C15.3844 7.68485 15.0933 7.3984 15.0933 7.04151C15.0933 6.68931 15.3844 6.40286 15.7366 6.40286H18.31C18.6669 6.40286 18.9533 6.68931 18.9533 7.04151V9.60548C18.9533 9.95768 18.6669 10.2441 18.31 10.2441C17.9578 10.2441 17.6666 9.95768 17.6666 9.60548V7.68485H15.7366Z" fill="black"/>
</g>
<mask id="mask2_33_617" style="mask-type:luminance" maskUnits="userSpaceOnUse" x="3" y="0" width="11" height="13">
<path d="M3.05225 0H13.8717V12.3033H3.05225V0Z" fill="white"/>
</mask>
<g mask="url(#mask2_33_617)">
<path fill-rule="evenodd" clip-rule="evenodd" d="M3.30566 12.1861V9.58921C3.30566 9.51877 3.32914 9.45302 3.3808 9.40606C3.42776 9.3591 3.4935 9.33093 3.55924 9.33093H4.91637C5.05724 9.33093 5.17464 9.44833 5.17464 9.58921V10.3265L3.30566 12.1861ZM6.10913 9.39198V4.93554C6.10913 4.8651 6.13261 4.80406 6.18427 4.7524C6.23123 4.70544 6.29697 4.67727 6.36741 4.67727H7.71983C7.86071 4.67727 7.97811 4.79466 7.97811 4.93554V8.59367C7.47095 8.45749 6.91683 8.58897 6.52707 8.97873L6.10913 9.39198ZM8.9126 9.17596V0.281881C8.9126 0.211442 8.94077 0.1457 8.98773 0.0987402C9.03469 0.0517815 9.10044 0.0236053 9.17088 0.0236053H10.5233C10.5937 0.0236053 10.6595 0.0517815 10.7064 0.0987402C10.7534 0.1457 10.7816 0.211442 10.7816 0.281881V10.6646C10.1523 10.1668 9.3728 9.54225 8.9126 9.17596ZM11.7161 11.4112V3.07126C11.7161 2.93038 11.8335 2.81768 11.9743 2.81768H13.3268C13.4723 2.81768 13.585 2.93038 13.585 3.07126V9.63616L11.763 11.4488C11.763 11.4488 11.7489 11.4347 11.7161 11.4112Z" fill="black"/>
</g>
</svg>
