<svg width="22" height="21" viewBox="0 0 22 21" fill="none" xmlns="http://www.w3.org/2000/svg">
<mask id="mask0_112_465" style="mask-type:luminance" maskUnits="userSpaceOnUse" x="0" y="6" width="17" height="15">
<path d="M0.192383 6.32982H16.488V20.7307H0.192383V6.32982Z" fill="white"/>
</mask>
<g mask="url(#mask0_112_465)">
<path d="M12.4894 8.22297C12.2693 7.73453 11.6896 7.35344 11.1636 7.35344H1.06205C0.788312 7.35344 0.541408 7.47152 0.391119 7.67012C0.24083 7.86872 0.197889 8.13709 0.273035 8.41083L2.4737 16.5908C2.61862 17.1169 3.15536 17.5355 3.69211 17.5355H6.40268V18.9579H5.58683C5.47411 18.9579 5.38286 19.0491 5.38286 19.1672V20.5037C5.38286 20.6218 5.47411 20.7131 5.58683 20.7131H11.3193C11.432 20.7131 11.5232 20.6218 11.5232 20.5037V19.1672C11.5232 19.0491 11.432 18.9579 11.3193 18.9579H10.5034V17.5355H15.5488C15.828 17.5355 16.0641 17.4174 16.1876 17.2188C16.3164 17.0202 16.3218 16.7572 16.2037 16.4942L12.4894 8.22297ZM10.2995 17.1222H7.32588L6.42415 14.256H10.7503L11.8882 17.1222H10.2995ZM6.29533 13.8427L5.31309 10.7296H9.34942L10.5839 13.8427H6.29533ZM1.31432 10.7296H4.88906L5.8713 13.8427H2.15701L1.31432 10.7296ZM8.16858 7.76673L9.18303 10.3163H5.18427L4.38451 7.76673H8.16858ZM9.78418 10.7296H13.1711L14.572 13.8427H11.0241L9.78418 10.7296ZM12.1244 8.39473L12.9886 10.3163H9.61779L8.60334 7.76673H11.1636C11.5286 7.76673 11.9687 8.05121 12.1244 8.39473ZM0.713167 7.91702C0.788312 7.82041 0.911763 7.76673 1.06205 7.76673H3.96048L4.76024 10.3163H1.20697L0.659492 8.29811C0.62192 8.15319 0.638023 8.01901 0.713167 7.91702ZM2.86552 16.4781L2.26437 14.256H6.00012L6.90185 17.1222H3.69211C3.33786 17.1222 2.96214 16.827 2.86552 16.4781ZM11.1207 20.2998H5.79079V19.3712H11.1207V20.2998ZM10.1009 18.9579H6.80524V17.5355H10.1009V18.9579ZM15.8494 16.9988C15.8011 17.0793 15.6938 17.1222 15.5488 17.1222H12.3284L11.1851 14.256H14.7545L15.8333 16.666C15.8977 16.8002 15.9031 16.9183 15.8494 16.9988Z" fill="black"/>
</g>
<path d="M15.4473 2.12549C14.0947 2.12549 12.989 3.25266 12.989 4.6321C12.989 6.01153 14.0947 7.13333 15.4473 7.13333C16.8053 7.13333 17.9056 6.01153 17.9056 4.6321C17.9056 3.25266 16.8053 2.12549 15.4473 2.12549ZM15.4473 6.72541C14.3148 6.72541 13.3969 5.7861 13.3969 4.6321C13.3969 3.47809 14.3148 2.53878 15.4473 2.53878C16.5798 2.53878 17.5031 3.47809 17.5031 4.6321C17.5031 5.7861 16.5798 6.72541 15.4473 6.72541Z" fill="black"/>
<mask id="mask1_112_465" style="mask-type:luminance" maskUnits="userSpaceOnUse" x="19" y="3" width="3" height="2">
<path d="M19.2368 3.58775H21.7703V4.96182H19.2368V3.58775Z" fill="white"/>
</mask>
<g mask="url(#mask1_112_465)">
<path d="M21.5873 4.42416H19.5209C19.4081 4.42416 19.3169 4.52078 19.3169 4.6335C19.3169 4.74621 19.4081 4.83746 19.5209 4.83746H21.5873C21.7 4.83746 21.7913 4.74621 21.7913 4.6335C21.7913 4.52078 21.7 4.42416 21.5873 4.42416Z" fill="black"/>
</g>
<path d="M9.30675 4.84149H11.3732C11.4859 4.84149 11.5772 4.75024 11.5772 4.63752C11.5772 4.52481 11.4859 4.42819 11.3732 4.42819H9.30675C9.19403 4.42819 9.10815 4.52481 9.10815 4.63752C9.10815 4.75024 9.19403 4.84149 9.30675 4.84149Z" fill="black"/>
<path d="M15.6508 10.8905V8.7865C15.6508 8.67378 15.5596 8.58253 15.4469 8.58253C15.3342 8.58253 15.2429 8.67378 15.2429 8.7865V10.8905C15.2429 11.0086 15.3342 11.0999 15.4469 11.0999C15.5596 11.0999 15.6508 11.0086 15.6508 10.8905Z" fill="black"/>
<path d="M18.4684 7.41927C18.3933 7.33876 18.2644 7.33876 18.1839 7.41927C18.1034 7.49978 18.1034 7.63397 18.1839 7.71448L19.6439 9.20127C19.6868 9.24421 19.7351 9.26031 19.7888 9.26031C19.8425 9.26031 19.8908 9.24421 19.9337 9.20127C20.0089 9.12076 20.0089 8.99194 19.9337 8.91143L18.4684 7.41927Z" fill="black"/>
<path d="M4.77623 3.70776L6.45625 3.58431L5.83363 6.75648C5.81216 6.85847 5.8712 6.95508 5.96244 6.99265C5.98391 6.99802 6.01075 7.00339 6.03222 7.00339C6.102 7.00339 6.17178 6.96582 6.20935 6.89604L8.63008 2.40884C8.66228 2.34443 8.66228 2.26391 8.62471 2.19951C8.58714 2.14046 8.51736 2.10289 8.44758 2.10289L6.7783 2.1351L7.33652 0.267218C7.36335 0.170603 7.32041 0.0686212 7.22917 0.0203144C7.14329 -0.0226253 7.03594 0.00421165 6.9769 0.084724L4.59911 3.38035C4.5508 3.44476 4.54543 3.53064 4.58301 3.60041C4.62058 3.67019 4.69572 3.71313 4.77623 3.70776ZM6.60654 1.28704L6.31133 2.29075C6.29523 2.35516 6.30596 2.41957 6.34353 2.47325C6.38647 2.52692 6.44552 2.55376 6.50993 2.55376L8.10406 2.52155L6.48846 5.52197L6.90175 3.40182C6.91785 3.33741 6.89638 3.273 6.85881 3.22469C6.82124 3.18175 6.7622 3.15491 6.70315 3.15491C6.70315 3.15491 6.69779 3.15491 6.69242 3.15491L5.18416 3.26226L6.60654 1.28704Z" fill="black"/>
</svg>
