<svg width="24" height="24" viewBox="0 0 24 24" fill="none" xmlns="http://www.w3.org/2000/svg">
<g clip-path="url(#clip0_33_1319)">
<path d="M24 1.21598V6.12998C24 6.90398 23.064 7.29198 22.516 6.74498L20.947 5.17598L18.215 7.90798C16.719 9.40398 14.283 9.40498 12.785 7.90798L10.094 5.21498C9.76604 4.88798 9.23503 4.88798 8.90604 5.21498L2.56004 11.561C2.26704 11.854 1.88304 12 1.49904 12C1.11504 12 0.731035 11.854 0.438035 11.561C-0.147965 10.976 -0.147965 10.026 0.438035 9.43998L6.78504 3.09298C8.28104 1.59698 10.717 1.59598 12.215 3.09298L14.906 5.78598C15.234 6.11298 15.765 6.11298 16.094 5.78598L18.826 3.05398L17.257 1.48498C16.709 0.936977 17.097 0.000976562 17.872 0.000976562H22.786C23.457 0.000976562 24.002 0.544977 24.002 1.21698L24 1.21598ZM21.685 16.267L18.645 15.761C18.271 15.699 18 15.379 18 15C18 14.448 18.448 14 19 14H21.268C21.624 14 21.956 14.191 22.135 14.501C22.409 14.979 23.02 15.144 23.501 14.865C23.979 14.589 24.143 13.977 23.865 13.499C23.331 12.575 22.335 12 21.267 12H20.999V11C20.999 10.448 20.552 9.99998 19.999 9.99998C19.446 9.99998 18.999 10.448 18.999 11V12C17.345 12 15.999 13.346 15.999 15C15.999 16.359 16.973 17.51 18.314 17.733L21.354 18.239C21.728 18.301 21.999 18.621 21.999 19C21.999 19.552 21.551 20 20.999 20H18.731C18.375 20 18.043 19.809 17.864 19.499C17.589 19.02 16.976 18.854 16.498 19.135C16.02 19.411 15.856 20.023 16.134 20.501C16.668 21.426 17.664 22 18.732 22H19V23C19 23.553 19.447 24 20 24C20.553 24 21 23.553 21 23V22C22.654 22 24 20.654 24 19C24 17.641 23.026 16.49 21.685 16.267ZM2.50004 14C1.67204 14 1.00004 14.672 1.00004 15.5V22.5C1.00004 23.328 1.67204 24 2.50004 24C3.32804 24 4.00004 23.328 4.00004 22.5V15.5C4.00004 14.672 3.32804 14 2.50004 14ZM7.50004 9.99998C6.67204 9.99998 6.00004 10.671 6.00004 11.5V22.5C6.00004 23.328 6.67204 24 7.50004 24C8.32804 24 9.00004 23.328 9.00004 22.5V11.5C9.00004 10.671 8.32804 9.99998 7.50004 9.99998ZM12.5 11C11.672 11 11 11.671 11 12.5V22.5C11 23.328 11.672 24 12.5 24C13.328 24 14 23.328 14 22.5V12.5C14 11.671 13.328 11 12.5 11Z" fill="#00BF63"/>
</g>
<defs>
<clipPath id="clip0_33_1319">
<rect width="24" height="24" fill="white"/>
</clipPath>
</defs>
</svg>
