<svg width="150" height="91" viewBox="0 0 150 91" fill="none" xmlns="http://www.w3.org/2000/svg">
<path d="M19.134 16.569C19.134 16.193 18.923 15.848 18.587 15.677C17.727 15.239 16.806 14.836 15.774 14.444C14.068 13.79 12.825 12.528 12.179 10.799C11.792 9.75 11.394 8.816 10.963 7.944C10.794 7.604 10.446 7.388 10.067 7.388C9.68798 7.388 9.33798 7.604 9.17098 7.945C8.74098 8.814 8.34398 9.748 7.95698 10.795C7.31098 12.527 6.06698 13.789 4.36398 14.442C3.32598 14.837 2.40398 15.24 1.54698 15.677C1.21198 15.847 1.00098 16.192 1.00098 16.568C1.00098 16.944 1.21198 17.289 1.54798 17.46C2.40998 17.898 3.33098 18.302 4.36098 18.692C6.06698 19.346 7.30998 20.608 7.95598 22.338C8.34498 23.391 8.74198 24.323 9.17098 25.192C9.33998 25.533 9.68698 25.749 10.067 25.749C10.447 25.749 10.795 25.533 10.963 25.192C11.394 24.323 11.791 23.389 12.177 22.341C12.824 20.609 14.069 19.347 15.77 18.694C16.804 18.302 17.725 17.899 18.587 17.461C18.923 17.29 19.134 16.946 19.134 16.569Z" fill="#00BF63"/>
<path d="M17.0961 11.542C17.3511 11.672 17.6021 11.779 17.8491 11.873C18.0561 11.953 18.2011 12.101 18.2791 12.308C18.3711 12.561 18.4761 12.813 18.6031 13.071C18.7701 13.413 19.1181 13.631 19.4991 13.631H19.5011C19.8811 13.631 20.2291 13.415 20.3971 13.074C20.5241 12.817 20.6281 12.564 20.7211 12.313C20.8011 12.101 20.9461 11.953 21.1491 11.875C21.4001 11.78 21.6501 11.673 21.9051 11.543C22.2411 11.373 22.4521 11.027 22.4521 10.651C22.4521 10.275 22.2401 9.92997 21.9041 9.75997C21.6501 9.63197 21.4001 9.52497 21.1521 9.42997C20.9461 9.35097 20.8011 9.20297 20.7221 8.99297C20.6281 8.73997 20.5241 8.48697 20.3961 8.22897C20.2281 7.88897 19.8801 7.67297 19.5001 7.67297H19.4981C19.1171 7.67297 18.7701 7.88997 18.6021 8.23197C18.4761 8.48897 18.3711 8.74197 18.2801 8.98997C18.2001 9.20197 18.0551 9.34997 17.8521 9.42797C17.6001 9.52397 17.3501 9.62997 17.0951 9.75997C16.7591 9.92997 16.5481 10.275 16.5481 10.651C16.5481 11.027 16.7591 11.372 17.0951 11.542H17.0961Z" fill="#00BF63"/>
<path d="M22.4529 22.185C22.1359 22.024 21.8229 21.89 21.5149 21.774C21.1759 21.644 20.9289 21.392 20.8019 21.05C20.6849 20.734 20.5539 20.418 20.3959 20.098C20.2269 19.757 19.8789 19.541 19.4999 19.541C19.1189 19.541 18.7709 19.758 18.6039 20.1C18.4469 20.42 18.3159 20.735 18.2019 21.045C18.0719 21.392 17.8249 21.644 17.4909 21.772C17.1789 21.89 16.8649 22.024 16.5489 22.186C16.2139 22.357 16.0029 22.701 16.0029 23.077C16.0029 23.453 16.2139 23.797 16.5489 23.968C16.8649 24.129 17.1769 24.262 17.4879 24.381C17.8249 24.51 18.0719 24.761 18.1999 25.104C18.3159 25.419 18.4469 25.735 18.6049 26.054C18.7729 26.395 19.1199 26.611 19.5009 26.612C19.8809 26.612 20.2279 26.397 20.3969 26.056C20.5559 25.736 20.6869 25.42 20.8029 25.107C20.9309 24.761 21.1779 24.51 21.5149 24.381C21.8269 24.262 22.1379 24.13 22.4539 23.969C22.7899 23.798 23.0009 23.453 23.0009 23.077C23.0009 22.701 22.7899 22.356 22.4539 22.185H22.4529Z" fill="#00BF63"/>
<g clip-path="url(#clip0_185_18)">
<path d="M114.781 45.1312C114.781 39.0337 112.104 33.2812 107.562 29.6662C108.087 23.5837 105.912 17.625 101.6 13.3087C97.2875 8.99997 91.3437 6.82872 85.5612 7.47747C78.0087 -2.10753 61.6925 -2.28753 54.3162 7.34622C48.2262 6.80622 42.275 8.99247 37.9625 13.3087C33.6537 17.6212 31.4787 23.5837 32.1312 29.3475C22.5462 36.9 22.3625 53.2162 32 60.5962C31.475 66.6787 33.65 72.6375 37.9625 76.9537C42.275 81.2625 48.2262 83.4412 54.0012 82.785C61.5537 92.37 77.87 92.55 85.2462 82.9162C91.3212 83.4262 97.2837 81.27 101.6 76.9537C105.909 72.6412 108.084 66.6787 107.431 60.915C112.104 56.985 114.781 51.2325 114.781 45.135V45.1312ZM90.5562 39.7537L72.785 56.8837C68.4237 61.2375 61.2875 61.2 56.9262 56.835L48.4812 48.99C46.9662 47.58 46.8762 45.2062 48.2862 43.6912C49.7 42.1725 52.0775 42.09 53.585 43.4962L62.1275 51.435C63.695 52.9987 66.065 52.995 67.5275 51.5287L85.3475 34.35C86.84 32.9175 89.2137 32.9587 90.65 34.4475C92.09 35.9362 92.045 38.3137 90.5562 39.75V39.7537Z" fill="#00BF63"/>
</g>
<g clip-path="url(#clip1_185_18)">
<path d="M145.845 23.627L139 28.6577L132.155 23.627L134.783 31.7514L127.942 36.75H136.388L139 44.8882L141.611 36.75H150.057L143.217 31.7514L145.845 23.627Z" fill="#00BF63"/>
</g>
<g clip-path="url(#clip2_185_18)">
<path d="M30.3556 77.399L25.9999 80.6003L21.6441 77.399L23.3166 82.5691L18.9631 85.75H24.338L25.9999 90.9288L27.6618 85.75H33.0361L28.6832 82.5691L30.3556 77.399Z" fill="#00BF63"/>
</g>
<defs>
<clipPath id="clip0_185_18">
<rect width="90" height="90" fill="white" transform="translate(32)"/>
</clipPath>
<clipPath id="clip1_185_18">
<rect width="22" height="22" fill="white" transform="matrix(1 0 0 -1 128 45)"/>
</clipPath>
<clipPath id="clip2_185_18">
<rect width="14" height="14" fill="white" transform="matrix(1 0 0 -1 19 91)"/>
</clipPath>
</defs>
</svg>
