<svg width="22" height="22" viewBox="0 0 22 22" fill="none" xmlns="http://www.w3.org/2000/svg">
<g clip-path="url(#clip0_73_1478)">
<path d="M17.1015 0.852525L5.92551 12.0285C5.49866 12.4531 5.16026 12.9581 4.92991 13.5143C4.69955 14.0705 4.58181 14.6669 4.58351 15.2689V16.5C4.58351 16.7431 4.68009 16.9763 4.852 17.1482C5.02391 17.3201 5.25707 17.4167 5.50018 17.4167H6.73126C7.3333 17.4184 7.92969 17.3007 8.48591 17.0703C9.04213 16.8399 9.54713 16.5015 9.97168 16.0747L21.1477 4.89869C21.6834 4.36168 21.9842 3.63413 21.9842 2.87561C21.9842 2.11709 21.6834 1.38954 21.1477 0.852525C20.6029 0.331761 19.8783 0.0411377 19.1246 0.0411377C18.3709 0.0411377 17.6463 0.331761 17.1015 0.852525ZM19.8515 3.60253L8.67551 14.7785C8.15863 15.2923 7.46002 15.5814 6.73126 15.5834H6.41685V15.2689C6.41876 14.5402 6.70795 13.8416 7.22168 13.3247L18.3977 2.14869C18.5935 1.96165 18.8538 1.85728 19.1246 1.85728C19.3954 1.85728 19.6557 1.96165 19.8515 2.14869C20.044 2.34166 20.152 2.60308 20.152 2.87561C20.152 3.14814 20.044 3.40955 19.8515 3.60253Z" fill="#00BF63"/>
<path d="M21.0833 8.23075C20.8402 8.23075 20.6071 8.32733 20.4352 8.49923C20.2632 8.67114 20.1667 8.9043 20.1667 9.14742V13.75H16.5C15.7707 13.75 15.0712 14.0397 14.5555 14.5555C14.0397 15.0712 13.75 15.7707 13.75 16.5V20.1667H4.58333C3.85399 20.1667 3.15451 19.8769 2.63879 19.3612C2.12306 18.8455 1.83333 18.146 1.83333 17.4167V4.58333C1.83333 3.85399 2.12306 3.15451 2.63879 2.63879C3.15451 2.12306 3.85399 1.83333 4.58333 1.83333H12.8718C13.1149 1.83333 13.3481 1.73676 13.52 1.56485C13.6919 1.39294 13.7885 1.15978 13.7885 0.916667C13.7885 0.673551 13.6919 0.440394 13.52 0.268485C13.3481 0.0965771 13.1149 0 12.8718 0L4.58333 0C3.3682 0.00145554 2.20326 0.484808 1.34403 1.34403C0.484808 2.20326 0.00145554 3.3682 0 4.58333L0 17.4167C0.00145554 18.6318 0.484808 19.7967 1.34403 20.656C2.20326 21.5152 3.3682 21.9985 4.58333 22H14.9811C15.5833 22.0017 16.1798 21.884 16.7362 21.6536C17.2925 21.4233 17.7977 21.0849 18.2224 20.658L20.6571 18.2215C21.084 17.797 21.4225 17.292 21.653 16.7358C21.8836 16.1796 22.0015 15.5832 22 14.9811V9.14742C22 8.9043 21.9034 8.67114 21.7315 8.49923C21.5596 8.32733 21.3264 8.23075 21.0833 8.23075ZM16.9262 19.3618C16.5578 19.7294 16.0918 19.9839 15.5833 20.0952V16.5C15.5833 16.2569 15.6799 16.0237 15.8518 15.8518C16.0237 15.6799 16.2569 15.5833 16.5 15.5833H20.0979C19.9845 16.0907 19.7303 16.5558 19.3646 16.9253L16.9262 19.3618Z" fill="#00BF63"/>
</g>
<defs>
<clipPath id="clip0_73_1478">
<rect width="22" height="22" fill="white"/>
</clipPath>
</defs>
</svg>
