<svg width="14" height="18" viewBox="0 0 14 18" fill="none" xmlns="http://www.w3.org/2000/svg">
<mask id="mask0_33_633" style="mask-type:luminance" maskUnits="userSpaceOnUse" x="1" y="0" width="11" height="9">
<path d="M1.92578 0H11.543V8.69685H1.92578V0Z" fill="white"/>
</mask>
<g mask="url(#mask0_33_633)">
<path d="M6.90849 8.5655C7.46261 8.5655 7.99795 8.4575 8.5098 8.24148C9.02635 8.02547 9.47716 7.71554 9.87162 7.31169C10.2661 6.90784 10.5666 6.44764 10.7779 5.9217C10.9939 5.39575 11.0973 4.85102 11.0973 4.28282C11.0973 3.71461 10.9939 3.16519 10.7779 2.63924C10.5666 2.118 10.2661 1.6531 9.87162 1.24925C9.47716 0.850095 9.02635 0.540165 8.5098 0.319457C7.99795 0.103443 7.46261 -0.00456238 6.90849 -0.00456238C6.35437 -0.00456238 5.81904 0.103443 5.30718 0.319457C4.79063 0.540165 4.33982 0.850095 3.94536 1.24925C3.5509 1.6531 3.25037 2.118 3.03905 2.63924C2.82304 3.16519 2.71973 3.71461 2.71973 4.28282C2.71973 4.85102 2.82773 5.39575 3.03905 5.9217C3.25037 6.44294 3.5556 6.90784 3.94536 7.31169C4.33982 7.71084 4.79063 8.02077 5.30718 8.24148C5.81904 8.4575 6.35437 8.5655 6.90849 8.5655ZM6.90849 0.737394C7.36869 0.737394 7.81011 0.826617 8.23274 1.00506C8.66007 1.1882 9.03575 1.44178 9.35977 1.77519C9.68378 2.1086 9.93267 2.48897 10.1111 2.9257C10.2849 3.35772 10.3741 3.81323 10.3741 4.28282C10.3741 4.75241 10.2849 5.20322 10.1111 5.63994C9.93267 6.07197 9.68378 6.45703 9.35977 6.78575C9.03575 7.11916 8.66007 7.37743 8.23274 7.55588C7.81011 7.73432 7.36869 7.82824 6.90849 7.82824C6.44829 7.82824 6.00687 7.73432 5.58424 7.55588C5.15691 7.37743 4.78124 7.11916 4.45722 6.78575C4.1332 6.45703 3.88432 6.07197 3.70587 5.63994C3.53212 5.20322 3.4429 4.75241 3.4429 4.28282C3.4429 3.81323 3.53212 3.35772 3.70587 2.9257C3.88432 2.49367 4.1332 2.1086 4.45722 1.77519C4.78593 1.44178 5.15691 1.1882 5.58424 1.00976C6.00687 0.826616 6.44829 0.737394 6.90849 0.737394Z" fill="black"/>
</g>
<mask id="mask1_33_633" style="mask-type:luminance" maskUnits="userSpaceOnUse" x="0" y="8" width="14" height="10">
<path d="M0.165039 8.6992H13.6517V17.0861H0.165039V8.6992Z" fill="white"/>
</mask>
<g mask="url(#mask1_33_633)">
<path d="M6.90835 9.2533C6.46693 9.2533 6.03021 9.29556 5.59818 9.38478C5.16616 9.474 4.74353 9.60549 4.33967 9.77924C3.93113 9.94829 3.54606 10.1596 3.17978 10.4132C2.8088 10.6621 2.4707 10.9485 2.16077 11.2678C1.84614 11.5872 1.56908 11.9347 1.32489 12.3056C1.0807 12.6813 0.874082 13.0805 0.705028 13.4937C0.535975 13.9117 0.409185 14.339 0.319962 14.7851C0.235436 15.2265 0.188477 15.6726 0.188477 16.1234C0.188477 16.3911 0.282395 16.6165 0.465536 16.8043C0.648678 16.9922 0.869386 17.0861 1.13236 17.0861H12.6843C12.999 17.0861 13.2478 16.9546 13.4357 16.701C13.5625 16.532 13.6235 16.3394 13.6235 16.1234C13.6235 15.6726 13.5813 15.2265 13.4967 14.7851C13.4075 14.339 13.2807 13.9117 13.1117 13.4937C12.9426 13.0805 12.736 12.6813 12.4918 12.3056C12.2476 11.9347 11.9659 11.5872 11.6559 11.2678C11.346 10.9485 11.0032 10.6621 10.6369 10.4132C10.2706 10.1643 9.88556 9.94829 9.47702 9.77924C9.06847 9.60549 8.65053 9.474 8.21851 9.38478C7.78648 9.29556 7.34976 9.2533 6.90835 9.2533ZM12.8581 16.2549C12.8158 16.316 12.7595 16.3441 12.6843 16.3441H1.13236C1.04783 16.3441 0.986784 16.3066 0.944521 16.2361C0.925737 16.2033 0.916345 16.1657 0.916345 16.1234C0.916345 15.7196 0.958608 15.3251 1.03374 14.9307C1.11357 14.5362 1.22628 14.1558 1.37655 13.7849C1.53151 13.4139 1.71465 13.0617 1.93536 12.7283C2.15137 12.3949 2.40026 12.0896 2.67732 11.8032C2.95907 11.5214 3.25961 11.2678 3.58833 11.0471C3.91235 10.8264 4.25984 10.6386 4.62143 10.4836C4.98302 10.3287 5.35869 10.216 5.74376 10.1361C6.12882 10.0563 6.51389 10.0187 6.90835 10.0187C7.3028 10.0187 7.68787 10.0563 8.07294 10.1361C8.458 10.216 8.83368 10.3287 9.19526 10.4836C9.55685 10.6386 9.90435 10.8264 10.2284 11.0471C10.5571 11.2678 10.8576 11.5214 11.1394 11.8032C11.4164 12.0896 11.6653 12.3949 11.8813 12.7283C12.102 13.0617 12.2852 13.4139 12.4401 13.7849C12.5904 14.1558 12.7031 14.5362 12.7829 14.9307C12.8581 15.3251 12.9003 15.7196 12.9003 16.1234C12.9003 16.1704 12.8863 16.2174 12.8581 16.2549Z" fill="black"/>
</g>
</svg>
