<svg width="17" height="16" viewBox="0 0 17 16" fill="none" xmlns="http://www.w3.org/2000/svg">
<mask id="mask0_33_611" style="mask-type:luminance" maskUnits="userSpaceOnUse" x="0" y="0" width="17" height="16">
<path d="M0.774414 0H16.4025V15.2852H0.774414V0Z" fill="white"/>
</mask>
<g mask="url(#mask0_33_611)">
<path d="M13.0357 7.95965C12.228 7.95965 11.5753 8.62178 11.5753 9.43887C11.6175 11.2515 14.1768 11.444 14.4774 9.65958C14.6229 8.77675 13.9186 7.95496 13.0357 7.95965ZM14.144 9.56097C13.9608 10.9604 11.951 10.857 11.9181 9.43887C11.9885 7.85634 14.2473 7.98783 14.144 9.56097ZM15.9801 10.2184C16.1538 10.2043 16.29 10.054 16.29 9.88029V8.98806C16.29 8.81431 16.1585 8.66874 15.9848 8.64526L15.4119 8.58891C15.3837 8.49969 15.3461 8.41046 15.3039 8.32594L15.6654 7.87982C15.7781 7.74834 15.7687 7.54641 15.6467 7.41962L15.0221 6.79506C14.8812 6.6448 14.6558 6.67297 14.5196 6.81385V1.82208C14.5196 0.817151 13.7119 6.10352e-05 12.7258 6.10352e-05C12.7211 6.10352e-05 11.7068 6.10352e-05 11.7021 6.10352e-05H1.85002C0.455335 0.0517165 0.45064 2.08505 1.85002 2.13671H2.55441V13.468C2.55441 14.4682 3.36211 15.2853 4.35295 15.2853H5.37197H15.2334C16.6281 15.2383 16.6281 13.2003 15.2334 13.1487H14.5196V12.0592C14.6558 12.2001 14.8812 12.2236 15.0221 12.078L15.6467 11.4487C15.7641 11.3219 15.7734 11.12 15.6654 10.9885L15.2992 10.5424C15.3461 10.4532 15.379 10.3593 15.4119 10.2747L15.9801 10.2184ZM1.85002 1.78921C0.91084 1.76103 0.91084 0.380431 1.85002 0.34756H10.9319C10.561 0.737322 10.561 1.40414 10.9319 1.78921H1.85002ZM5.37666 14.9425H4.35295C3.55465 14.9425 2.90191 14.2804 2.90191 13.468V2.13671H11.7115C11.9369 2.13671 11.9369 1.78921 11.7115 1.78921C11.317 1.78921 10.9977 1.46049 10.9977 1.06604C10.9977 0.718538 11.2419 0.42739 11.5659 0.361647C11.6222 0.338167 12.6366 0.34756 12.7258 0.34756C13.5288 0.34756 14.1815 1.00499 14.1815 1.81738V7.08621L14.1252 7.13317C14.0406 7.09091 13.9514 7.05334 13.8669 7.02517L13.8105 6.44287C13.7918 6.26912 13.6462 6.14233 13.4724 6.14233H12.5943C12.4252 6.14233 12.2797 6.26912 12.2609 6.44757L12.1998 7.02517C12.1153 7.05334 12.0261 7.09091 11.9416 7.13317L11.4955 6.76689C11.3593 6.65419 11.162 6.66358 11.0446 6.79037L10.4201 7.41962C10.3027 7.53702 10.2886 7.73895 10.3966 7.87513L10.7582 8.32594C10.7159 8.40577 10.6831 8.49499 10.6502 8.58421L10.0773 8.64526C9.90823 8.66404 9.78144 8.80962 9.78144 8.98337V9.87559C9.78144 10.0446 9.91293 10.1996 10.082 10.2137L10.6549 10.2747C10.6831 10.3546 10.7206 10.4532 10.7629 10.5424L10.3966 10.9932C10.2933 11.1294 10.3027 11.3313 10.4248 11.4487L11.04 12.0733C11.162 12.2048 11.3593 12.2142 11.4955 12.1015L11.9416 11.7352C12.0214 11.7774 12.1106 11.815 12.1998 11.8479L12.2609 12.4255C12.2797 12.5992 12.4206 12.7307 12.5943 12.7307H13.4724C13.6462 12.7307 13.7918 12.6039 13.8105 12.4255L13.8669 11.8479C13.9608 11.815 14.0453 11.7774 14.1252 11.7352L14.1815 11.7821V13.158H5.37666C5.27805 13.158 5.20292 13.2379 5.20761 13.3318C5.20761 13.4257 5.28275 13.5055 5.37666 13.5055C5.5645 13.5055 5.73356 13.5807 5.86504 13.6981C6.33463 14.116 6.01061 14.9566 5.37666 14.9425ZM15.2334 13.5008C16.1726 13.529 16.1726 14.9096 15.2334 14.9425H6.15619C6.52247 14.5527 6.51778 13.8765 6.15619 13.5008C6.56943 13.5008 15.1207 13.5008 15.2334 13.5008ZM14.9704 10.6739L15.4025 11.2045L14.792 11.8338L14.252 11.3971C14.2003 11.3501 14.1252 11.3407 14.0641 11.3783C13.9467 11.444 13.8059 11.5004 13.6556 11.552C13.5945 11.5755 13.5429 11.6319 13.5382 11.6976L13.4724 12.3832L12.6037 12.3879L12.5333 11.6976C12.5286 11.6319 12.4769 11.5755 12.4159 11.552C12.2703 11.5051 12.1294 11.4487 12.0026 11.3783C11.9416 11.3454 11.8664 11.3501 11.8148 11.3971L11.2935 11.8338C11.209 11.7446 10.7488 11.2797 10.6737 11.2092L11.1057 10.6739C11.1949 10.5706 11.101 10.4485 11.0587 10.3499C10.9695 10.1996 10.9977 9.9789 10.8098 9.94603L10.1336 9.88029L10.1289 8.99276L10.8098 8.92232C10.8803 8.91293 10.9366 8.86597 10.9554 8.80023C10.9977 8.64996 11.0587 8.51377 11.1245 8.38698C11.1573 8.32594 11.1527 8.24611 11.1057 8.19445L10.6737 7.65912L11.2888 7.03456L11.8195 7.47128C11.8758 7.51354 11.9463 7.52293 12.0073 7.49006C12.1435 7.41493 12.2797 7.35858 12.4159 7.32101C12.4816 7.30223 12.5286 7.24118 12.538 7.17074L12.6037 6.48513L13.4771 6.48044L13.5476 7.17074C13.5523 7.24118 13.5992 7.30223 13.6697 7.32101C13.8059 7.36327 13.9467 7.41962 14.0735 7.49006C14.2144 7.57929 14.3647 7.37266 14.468 7.30692C14.4727 7.30222 14.7873 7.04395 14.792 7.03925L15.4119 7.65912L14.9704 8.19915C14.9282 8.2555 14.9188 8.32594 14.9517 8.39168C15.0221 8.52317 15.0784 8.65935 15.1207 8.80492C15.1442 8.87066 15.2005 8.91762 15.2663 8.92702L15.9472 8.99745V9.87559L15.2663 9.94603C15.0831 9.9789 15.1019 10.2043 15.0174 10.3452C14.9751 10.4438 14.8812 10.5706 14.9704 10.6739ZM3.83171 6.99229H8.27405C8.37266 6.99229 8.4478 6.91716 8.4478 6.82324V5.53656C8.4478 5.44264 8.37266 5.36281 8.27405 5.36281H3.83171C3.73779 5.36281 3.66265 5.44264 3.66265 5.53656V6.82324C3.66265 6.91246 3.73779 6.99229 3.83171 6.99229ZM4.00545 5.71031H8.105V6.6448H4.00545V5.71031ZM3.83171 8.10992H6.30176C6.52247 8.10992 6.52247 8.45742 6.30176 8.45742H3.83171C3.6063 8.45273 3.611 8.10992 3.83171 8.10992ZM8.50415 9.68306H3.8364C3.611 9.68306 3.611 9.33556 3.8364 9.33556H8.50415C8.72956 9.34026 8.72486 9.68306 8.50415 9.68306ZM8.50415 10.5659C8.72956 10.5659 8.72486 10.9134 8.50415 10.9134H3.8364C3.611 10.9134 3.611 10.5659 3.8364 10.5659H8.50415ZM8.50415 12.1437H3.8364C3.611 12.1437 3.611 11.7962 3.8364 11.7962H8.50415C8.72956 11.7962 8.72486 12.139 8.50415 12.1437ZM6.73848 4.40953H7.56966C7.66828 4.40953 7.74341 4.3297 7.74341 4.23579V2.87397C7.74341 2.78005 7.66828 2.70491 7.56966 2.70491H6.73848C6.64456 2.70491 6.56943 2.78005 6.56943 2.87397V4.23579C6.56943 4.3297 6.64456 4.40953 6.73848 4.40953ZM6.91223 3.04772H7.40061V4.06204H6.91223V3.04772ZM10.9132 4.23579V2.87397C10.9132 2.78005 10.9883 2.70491 11.0822 2.70491H11.9181C12.1388 2.70491 12.1388 3.05241 11.9181 3.05241H11.256V4.06673H11.9181C12.1388 4.06673 12.1388 4.40953 11.9181 4.41423H11.0822C10.9883 4.40953 10.9132 4.3297 10.9132 4.23579ZM8.02047 4.23579V3.92585C8.02047 3.70045 8.36327 3.70045 8.36327 3.92585V4.06673H8.85165V2.87397C8.85165 2.64856 9.19445 2.64856 9.19445 2.87397V4.23579C9.19445 4.3297 9.11932 4.40953 9.0254 4.40953H8.18952C8.09561 4.40953 8.02047 4.3297 8.02047 4.23579ZM9.46682 4.23579V2.87397C9.46682 2.78005 9.54195 2.70491 9.63587 2.70491H10.467C10.6925 2.70491 10.6925 3.05241 10.467 3.05241H9.80492V3.38582H10.467C10.561 3.38582 10.6361 3.46096 10.6361 3.55957C10.6361 3.65349 10.561 3.72863 10.467 3.72863H9.80492V4.06673H10.467C10.6925 4.06673 10.6925 4.40953 10.467 4.41423H9.64056C9.54665 4.40953 9.46682 4.3297 9.46682 4.23579ZM12.4863 2.70022H13.3175C13.5429 2.70022 13.5429 3.04772 13.3175 3.04772H13.0733V4.23579C13.0733 4.3297 12.9982 4.40953 12.9042 4.40953C12.8103 4.40953 12.7352 4.3297 12.7352 4.23579V3.04772H12.4863C12.2609 3.04772 12.2609 2.70491 12.4863 2.70022ZM3.93032 4.23579V3.72863H4.59245C4.68636 3.72863 4.7615 3.65349 4.7615 3.55957V2.87397C4.7615 2.78005 4.68636 2.70491 4.59245 2.70491H3.76127C3.66735 2.70491 3.59221 2.78005 3.59221 2.87397V4.23579C3.59221 4.46119 3.93032 4.46589 3.93032 4.23579ZM3.93032 3.04772H4.4187V3.38113H3.93032V3.04772ZM5.28744 4.40953C5.38136 4.40953 5.46119 4.3297 5.46119 4.23579V3.89298L6.01061 4.36727C6.04349 4.39545 6.08105 4.41423 6.11862 4.41423C6.27359 4.41893 6.35342 4.20761 6.23132 4.109L5.7993 3.73332H6.11862C6.21724 3.73332 6.29237 3.65349 6.29237 3.55957V2.87866C6.29237 2.78474 6.21724 2.70491 6.11862 2.70491H5.28744C5.19352 2.70491 5.11839 2.78474 5.11839 2.87866V4.24048C5.11839 4.3297 5.19352 4.40953 5.28744 4.40953ZM5.46119 3.04772H5.94957V3.38113H5.46119V3.04772Z" fill="black"/>
</g>
</svg>
