<svg width="17" height="18" viewBox="0 0 17 18" fill="none" xmlns="http://www.w3.org/2000/svg">
<path fill-rule="evenodd" clip-rule="evenodd" d="M14.5308 2.48375C12.9314 0.882983 10.8052 0.000712083 8.54002 0C3.87231 0 0.0733446 3.79825 0.0712083 8.46809C0.0704963 9.96062 0.460718 11.4175 1.202 12.7021L0 17.09L4.48897 15.9122C5.72586 16.5873 7.1187 16.9426 8.53574 16.9433H8.5393C13.2063 16.9433 17.006 13.1443 17.0081 8.4745C17.0095 6.21221 16.1294 4.0838 14.5308 2.48375ZM8.54002 15.5127H8.53717C7.27393 15.5127 6.03562 15.1731 4.95468 14.5315L4.69761 14.3791L2.03371 15.0777L2.74508 12.48L2.57774 12.2137C1.87278 11.0928 1.50107 9.79755 1.50178 8.46809C1.50321 4.58724 4.6613 1.42986 8.54358 1.42986C10.4235 1.42986 12.1909 2.16331 13.5196 3.49348C14.8484 4.82436 15.5797 6.59247 15.579 8.47308C15.5768 12.3554 12.4194 15.5127 8.54002 15.5127ZM12.4009 10.2412C12.1894 10.1351 11.1491 9.62309 10.9547 9.5526C10.761 9.4821 10.62 9.4465 10.4783 9.65799C10.3366 9.86947 9.93214 10.3466 9.80824 10.4883C9.68505 10.6293 9.56114 10.6471 9.34966 10.541C9.13817 10.4349 8.45599 10.212 7.64778 9.49065C7.01901 8.92953 6.59389 8.23667 6.4707 8.02447C6.34751 7.81227 6.45788 7.69833 6.56327 7.59294C6.65869 7.49824 6.77476 7.34585 6.88086 7.22195C6.98767 7.09947 7.02257 7.01117 7.09377 6.86947C7.16427 6.72848 7.12938 6.60457 7.07597 6.49847C7.02257 6.39308 6.59959 5.35131 6.4237 4.92762C6.25209 4.51461 6.07763 4.57086 5.94732 4.56445C5.82413 4.55805 5.68314 4.55733 5.54143 4.55733C5.40044 4.55733 5.17115 4.61003 4.97746 4.82223C4.78378 5.03443 4.2369 5.54642 4.2369 6.58748C4.2369 7.62926 4.99527 8.63543 5.10065 8.77643C5.20604 8.91742 6.59247 11.0551 8.71519 11.9715C9.22006 12.1894 9.61455 12.3198 9.92146 12.4173C10.4285 12.5782 10.8899 12.5555 11.2545 12.5013C11.6611 12.4408 12.5063 11.9893 12.6829 11.4952C12.8595 11.001 12.8595 10.5766 12.8061 10.489C12.7534 10.4 12.6124 10.3473 12.4009 10.2412Z" fill="white"/>
</svg>
